{"glyphs":{"0":{"ha":1256,"x_min":61,"x_max":1201,"o":"m 575 0 q 158 83 256 0 q 61 442 61 167 l 61 525 q 158 885 61 801 q 575 969 254 969 l 692 969 q 1105 885 1008 969 q 1201 525 1201 801 l 1201 442 q 1105 84 1201 168 q 692 0 1008 0 l 575 0 m 1097 442 l 1097 525 q 1031 813 1097 757 q 690 868 964 868 l 575 868 q 233 813 299 868 q 167 525 167 758 l 167 442 q 233 157 167 213 q 575 101 300 101 l 690 101 q 1031 156 965 101 q 1097 442 1097 211 z "},"1":{"ha":1256,"x_min":303,"x_max":764,"o":"m 651 0 l 651 864 l 376 607 l 303 675 l 603 964 l 764 964 l 764 0 l 651 0 z "},"2":{"ha":1256,"x_min":78,"x_max":1181,"o":"m 697 351 l 535 351 q 246 304 322 351 q 183 167 183 265 l 183 100 l 1176 100 l 1176 0 l 78 0 l 78 165 q 179 385 78 317 q 525 453 281 453 l 694 453 q 1002 493 928 453 q 1076 644 1076 533 q 1010 818 1076 774 q 694 869 932 869 l 575 869 q 267 828 346 869 q 200 700 200 793 l 86 700 q 192 904 86 843 q 575 969 304 969 l 694 969 q 1088 897 988 969 q 1181 644 1181 831 q 1096 422 1181 482 q 697 351 994 351 z "},"3":{"ha":1256,"x_min":106,"x_max":1168,"o":"m 524 547 l 840 547 q 1006 576 958 547 q 1063 708 1063 611 q 1000 826 1063 796 q 694 864 924 864 l 543 864 q 274 821 346 864 q 210 685 210 782 l 106 685 q 176 883 106 822 q 515 964 269 964 l 717 964 q 1078 910 988 964 q 1168 708 1168 857 q 1126 557 1168 603 q 1026 503 1100 528 q 1142 428 1115 481 q 1168 283 1168 375 q 1083 65 1168 124 q 717 0 989 0 l 518 0 q 190 58 274 0 q 106 272 106 117 l 210 272 q 276 135 210 172 q 531 99 342 99 l 697 99 q 992 135 922 99 q 1063 282 1063 172 q 1008 424 1063 392 q 840 447 968 447 l 524 447 l 524 547 z "},"4":{"ha":1256,"x_min":96,"x_max":1183,"o":"m 1046 308 l 1183 308 l 1183 208 l 1046 208 l 1046 0 l 939 0 l 939 208 l 96 208 l 96 308 l 933 964 l 1046 964 l 1046 308 m 939 849 l 251 308 l 939 308 l 939 849 z "},"5":{"ha":1256,"x_min":72,"x_max":1176,"o":"m 767 0 l 485 0 q 170 66 268 0 q 72 274 72 132 l 178 274 q 243 143 178 181 q 504 100 317 100 l 735 100 q 1003 147 936 100 q 1071 311 1071 193 l 1071 358 q 796 567 1071 567 l 446 567 q 283 551 346 567 q 197 503 219 535 l 90 503 l 90 964 l 1150 964 l 1150 864 l 196 864 l 196 603 q 282 649 218 632 q 468 667 346 667 l 758 667 q 1076 594 975 667 q 1176 368 1176 521 l 1176 311 q 1083 72 1176 143 q 767 0 989 0 z "},"6":{"ha":1256,"x_min":85,"x_max":1188,"o":"m 814 571 q 1103 503 1011 571 q 1188 313 1188 439 l 1188 256 q 1108 67 1188 126 q 814 0 1019 0 l 458 0 q 168 69 246 0 q 85 344 85 143 l 85 633 q 179 897 85 821 q 514 974 274 974 l 731 974 q 1076 908 972 974 q 1179 700 1179 843 l 1075 700 q 1015 828 1075 788 q 785 874 947 874 l 464 874 q 252 823 308 874 q 196 638 196 772 l 196 479 q 257 542 218 522 q 450 571 317 571 l 814 571 m 843 100 q 1020 142 967 100 q 1074 264 1074 183 l 1074 306 q 1022 422 1074 379 q 846 471 964 471 l 419 471 q 247 424 304 471 q 196 306 196 381 l 196 264 q 247 142 196 185 q 417 100 299 100 l 843 100 z "},"7":{"ha":1256,"x_min":32,"x_max":1239,"o":"m 1239 964 l 1239 872 l 325 0 l 178 0 l 1082 864 l 32 864 l 32 964 l 1239 964 z "},"8":{"ha":1256,"x_min":90,"x_max":1197,"o":"m 90 692 l 90 726 q 169 908 90 847 q 425 974 254 974 l 856 974 q 1117 908 1032 974 q 1197 726 1197 847 l 1197 692 q 1139 540 1197 592 q 1001 494 1086 494 q 1138 450 1088 494 q 1197 296 1197 397 l 1197 249 q 1115 65 1197 128 q 856 1 1032 1 l 425 1 q 173 65 256 1 q 90 249 90 129 l 90 296 q 150 449 90 396 q 288 494 203 494 q 150 539 201 494 q 90 692 90 590 m 438 874 q 253 835 307 874 q 204 722 204 800 l 204 699 q 256 579 204 615 q 457 538 314 538 l 828 538 q 1028 576 974 538 q 1083 699 1083 615 l 1083 722 q 1036 835 1083 800 q 850 874 982 874 l 438 874 m 1083 253 l 1083 289 q 1032 408 1083 372 q 828 450 972 450 l 457 450 q 259 411 314 450 q 204 289 204 372 l 204 253 q 255 138 204 175 q 438 101 306 101 l 850 101 q 1032 138 981 101 q 1083 253 1083 175 z "},"9":{"ha":1256,"x_min":85,"x_max":1188,"o":"m 458 401 q 172 467 260 401 q 85 660 85 533 l 85 717 q 164 906 85 846 q 458 972 253 972 l 814 972 q 1107 901 1026 972 q 1188 628 1188 829 l 1188 339 q 1093 75 1188 151 q 758 -1 999 -1 l 542 -1 q 195 64 299 -1 q 92 272 92 129 l 197 272 q 257 144 197 185 q 488 99 325 99 l 808 99 q 1020 149 964 99 q 1076 335 1076 200 l 1076 493 q 1014 431 1053 450 q 821 401 954 401 l 458 401 m 429 872 q 252 831 306 872 q 199 708 199 789 l 199 667 q 250 550 199 593 q 426 501 308 501 l 851 501 q 1022 547 968 501 q 1076 667 1076 592 l 1076 708 q 1028 828 1076 788 q 854 872 974 872 l 429 872 z "},"×":{"ha":0,"x_min":0,"x_max":0,"o":""}," ":{"ha":729,"x_min":0,"x_max":0,"o":""},"!":{"ha":275,"x_min":89,"x_max":194,"o":"m 89 232 l 89 964 l 194 964 l 194 232 l 89 232 m 89 108 l 194 108 l 194 0 l 89 0 l 89 108 z "},"\"":{"ha":478,"x_min":106,"x_max":381,"o":"m 381 983 l 364 742 l 317 742 l 300 983 l 381 983 m 186 983 l 171 742 l 121 742 l 106 983 l 186 983 z "},"#":{"ha":924,"x_min":40,"x_max":888,"o":"m 450 940 l 403 760 l 618 760 l 668 940 l 747 940 l 699 760 l 888 760 l 869 682 l 678 682 l 633 510 l 822 510 l 801 432 l 613 432 l 563 244 l 483 244 l 533 432 l 317 432 l 268 250 l 188 250 l 236 432 l 40 432 l 58 510 l 257 510 l 303 682 l 106 682 l 128 760 l 324 760 l 371 940 l 450 940 m 382 682 l 338 510 l 553 510 l 600 682 l 382 682 z "},"$":{"ha":1304,"x_min":63,"x_max":1249,"o":"m 367 444 q 128 513 201 444 q 63 692 63 572 q 142 893 63 818 q 374 968 222 968 l 601 968 l 601 1056 l 706 1056 l 706 968 l 893 968 q 1157 904 1075 968 q 1239 700 1239 840 l 1135 700 q 1086 824 1135 786 q 886 867 1029 867 l 706 867 l 706 544 l 925 544 q 1176 483 1104 544 q 1249 278 1249 421 q 1189 83 1249 151 q 935 -4 1111 -4 l 706 -4 l 706 -124 l 601 -124 l 601 -4 l 379 -4 q 156 63 236 -4 q 71 268 71 133 l 176 268 q 222 140 176 185 q 369 96 268 96 l 601 96 l 601 444 l 367 444 m 944 96 q 1094 146 1049 96 q 1135 278 1135 190 q 1103 404 1135 372 q 944 444 1063 444 l 706 444 l 706 96 l 944 96 m 350 867 q 222 832 261 867 q 176 692 176 792 q 222 579 176 614 q 350 544 268 544 l 601 544 l 601 867 l 350 867 z "},"%":{"ha":1668,"x_min":69,"x_max":1618,"o":"m 751 640 q 689 425 751 481 q 436 369 626 369 l 385 369 q 132 424 194 369 q 69 636 69 478 l 69 692 q 132 907 69 851 q 385 963 194 963 l 438 963 q 690 908 628 963 q 751 692 751 853 l 751 640 m 738 -46 l 651 -46 l 951 1011 l 1038 1011 l 738 -46 m 1618 271 q 1556 56 1618 111 q 1304 0 1493 0 l 1253 0 q 1000 54 1063 0 q 938 267 938 108 l 938 322 q 1000 538 938 482 q 1253 593 1063 593 l 1306 593 q 1556 538 1494 593 q 1618 322 1618 483 l 1618 271 m 1306 510 l 1253 510 q 1065 478 1101 510 q 1028 322 1028 447 l 1028 267 q 1065 115 1028 146 q 1253 83 1103 83 l 1304 83 q 1492 114 1456 83 q 1528 271 1528 144 l 1528 322 q 1491 478 1528 447 q 1306 510 1454 510 m 438 879 l 385 879 q 197 848 233 879 q 160 692 160 817 l 160 636 q 197 484 160 515 q 385 453 235 453 l 436 453 q 624 484 588 453 q 661 640 661 515 l 661 692 q 624 848 661 817 q 438 879 588 879 z "},"&":{"ha":1438,"x_min":72,"x_max":1372,"o":"m 708 0 l 574 0 q 172 58 272 0 q 72 289 72 117 l 72 333 q 138 522 72 454 q 294 600 193 581 q 261 639 271 619 q 247 724 247 668 q 350 908 247 851 q 674 964 453 964 l 828 964 q 1168 889 1072 964 q 1250 685 1250 825 l 1143 685 q 1069 820 1143 776 q 833 864 996 864 l 671 864 q 426 830 497 864 q 356 722 356 796 q 397 626 356 660 q 475 578 417 611 l 1151 194 q 1243 314 1215 258 q 1267 407 1267 361 l 1372 407 q 1328 243 1372 322 q 1246 136 1300 193 l 1343 81 l 1279 -10 l 1157 61 q 1046 19 1124 33 q 708 0 936 0 m 178 332 l 178 296 q 253 138 178 175 q 575 100 329 100 l 706 100 q 960 107 900 100 q 1046 126 1019 114 l 361 525 q 228 476 279 525 q 178 332 178 426 z "},"'":{"ha":292,"x_min":106,"x_max":186,"o":"m 186 983 l 171 742 l 121 742 l 106 983 l 186 983 z "},"(":{"ha":458,"x_min":50,"x_max":418,"o":"m 50 711 q 151 961 50 871 q 418 1051 253 1051 l 418 943 q 226 883 289 943 q 164 710 164 824 l 164 174 q 227 1 164 63 q 418 -60 290 -60 l 418 -168 q 151 -78 253 -168 q 50 172 50 13 l 50 711 z "},")":{"ha":458,"x_min":39,"x_max":408,"o":"m 39 -168 l 39 -60 q 231 1 168 -60 q 294 174 294 61 l 294 710 q 233 881 294 822 q 39 943 168 943 l 39 1051 q 306 961 204 1051 q 408 711 408 871 l 408 172 q 307 -78 408 13 q 39 -168 206 -168 z "},"*":{"ha":501,"x_min":56,"x_max":460,"o":"m 403 735 q 446 715 432 729 q 460 681 460 700 q 446 646 460 661 q 410 631 432 631 q 356 658 383 631 l 265 749 l 301 628 l 306 600 q 254 547 306 547 q 219 560 233 547 q 204 600 204 574 l 208 628 l 250 747 l 160 653 q 135 633 147 639 q 108 626 122 626 q 71 640 86 626 q 56 675 56 654 q 69 706 56 693 q 114 728 82 719 l 242 761 l 113 786 q 69 806 82 792 q 56 839 56 819 q 70 873 56 858 q 106 888 85 888 q 157 861 131 888 l 251 772 l 208 892 l 204 919 q 219 958 204 944 q 256 972 235 972 q 291 959 276 972 q 306 919 306 946 l 301 892 l 264 772 l 350 865 q 376 886 364 881 q 403 892 389 892 q 440 877 425 892 q 454 843 454 863 q 441 811 454 825 q 397 790 428 797 l 272 761 l 403 735 z "},"+":{"ha":676,"x_min":78,"x_max":596,"o":"m 289 453 l 289 653 l 385 653 l 385 453 l 596 453 l 596 360 l 385 360 l 385 158 l 289 158 l 289 360 l 78 360 l 78 453 l 289 453 z "},",":{"ha":267,"x_min":86,"x_max":200,"o":"m 86 108 l 200 108 l 200 -71 q 158 -147 200 -122 l 104 -147 q 146 -71 146 -118 l 146 0 l 86 0 l 86 108 z "},"-":{"ha":624,"x_min":78,"x_max":543,"o":"m 543 454 l 543 353 l 78 353 l 78 454 l 543 454 z "},".":{"ha":267,"x_min":86,"x_max":200,"o":"m 86 108 l 200 108 l 200 0 l 86 0 l 86 108 z "},"/":{"ha":446,"x_min":11,"x_max":449,"o":"m 125 -124 l 11 -124 l 335 1011 l 449 1011 l 125 -124 z "},":":{"ha":267,"x_min":86,"x_max":200,"o":"m 86 613 l 200 613 l 200 504 l 86 504 l 86 613 m 86 108 l 200 108 l 200 0 l 86 0 l 86 108 z "},";":{"ha":267,"x_min":86,"x_max":200,"o":"m 86 613 l 200 613 l 200 504 l 86 504 l 86 613 m 86 106 l 200 106 l 200 -74 q 158 -150 200 -125 l 104 -150 q 146 -74 146 -121 l 146 -3 l 86 -3 l 86 106 z "},"<":{"ha":535,"x_min":46,"x_max":463,"o":"m 463 694 l 463 586 l 215 425 l 463 269 l 463 163 l 46 425 l 463 694 z "},"=":{"ha":624,"x_min":78,"x_max":543,"o":"m 543 338 l 543 238 l 78 238 l 78 338 l 543 338 m 543 561 l 543 461 l 78 461 l 78 561 l 543 561 z "},">":{"ha":526,"x_min":76,"x_max":493,"o":"m 76 163 l 76 269 l 322 425 l 76 586 l 76 694 l 493 425 l 76 163 z "},"?":{"ha":1264,"x_min":64,"x_max":1200,"o":"m 486 108 l 600 108 l 600 0 l 486 0 l 486 108 m 600 315 l 600 232 l 486 232 l 486 328 q 552 485 486 433 q 746 538 618 538 q 992 564 919 538 q 1088 699 1088 599 q 1035 832 1088 799 q 826 865 982 865 l 432 865 q 231 824 289 865 q 178 700 178 786 l 64 700 q 154 906 64 839 q 422 974 244 974 l 826 974 q 1117 910 1033 974 q 1200 699 1200 847 q 1085 485 1200 547 q 746 429 982 429 q 632 404 664 429 q 600 315 600 379 z "},"@":{"ha":1317,"x_min":188,"x_max":1144,"o":"m 1069 299 l 946 300 l 885 297 l 885 328 q 855 306 874 315 q 810 297 836 297 l 543 297 q 414 399 414 297 l 414 446 q 446 515 414 490 q 546 540 478 540 l 806 540 q 883 507 874 540 l 883 564 q 858 622 883 600 q 782 644 833 644 l 604 644 q 525 629 551 644 q 499 589 499 614 l 499 579 l 436 579 l 436 589 q 476 667 436 639 q 588 694 517 694 l 788 694 q 908 659 869 694 q 946 556 946 624 l 946 356 q 1001 356 975 356 q 1050 357 1026 356 q 1094 355 1081 357 q 1121 344 1108 353 q 1144 322 1144 328 q 1128 311 1136 317 l 1138 311 q 1070 147 1138 200 q 846 94 1003 94 l 542 94 q 260 161 328 94 q 188 447 188 232 l 188 517 q 267 800 188 728 q 565 872 346 872 l 843 872 q 1136 654 1136 872 l 1068 654 q 1017 767 1068 725 q 843 815 957 815 l 554 815 q 314 753 379 815 q 249 518 249 692 l 249 447 q 308 207 249 269 q 532 144 368 144 l 843 144 q 1012 185 954 144 q 1069 299 1069 226 m 771 497 l 547 497 q 473 484 492 497 q 454 440 454 471 l 454 411 q 475 367 454 382 q 547 351 496 351 l 771 351 q 863 425 863 351 q 771 497 863 497 z "},"A":{"ha":1228,"x_min":10,"x_max":1222,"o":"m 535 964 l 697 964 l 1222 0 l 1100 0 l 974 232 l 254 232 l 128 0 l 10 0 l 535 964 m 615 893 l 311 332 l 921 332 l 615 893 z "},"B":{"ha":1282,"x_min":90,"x_max":1225,"o":"m 819 964 q 1086 906 1000 964 q 1172 724 1172 847 q 1150 581 1172 625 q 1081 513 1128 538 q 1174 453 1142 490 q 1225 283 1225 392 q 1135 61 1225 128 q 869 0 1053 0 l 90 0 l 90 964 l 819 964 m 196 556 l 863 556 q 1015 585 969 556 q 1068 706 1068 618 q 1022 824 1068 788 q 860 864 972 864 l 196 864 l 196 556 m 196 100 l 908 100 q 1065 140 1017 100 q 1119 282 1119 185 q 1069 416 1119 376 q 901 456 1018 456 l 196 456 l 196 100 z "},"C":{"ha":1317,"x_min":58,"x_max":1246,"o":"m 58 442 l 58 529 q 158 883 58 792 q 531 974 257 974 l 878 974 q 1244 700 1244 974 l 1139 700 q 1083 828 1139 786 q 878 874 1021 874 l 517 874 q 231 810 299 874 q 164 531 164 747 l 164 442 q 223 159 164 219 q 490 99 282 99 l 878 99 q 1081 139 1022 99 q 1140 272 1140 179 l 1246 272 q 1163 66 1246 132 q 882 0 1079 0 l 501 0 q 147 86 236 0 q 58 442 58 172 z "},"D":{"ha":1304,"x_min":99,"x_max":1246,"o":"m 99 0 l 99 964 l 772 964 q 1147 874 1049 964 q 1246 519 1246 783 l 1246 442 q 1158 85 1246 169 q 801 0 1071 0 l 99 0 m 1140 442 l 1140 521 q 1073 801 1140 738 q 788 864 1006 864 l 204 864 l 204 100 l 814 100 q 1085 157 1029 100 q 1140 442 1140 214 z "},"E":{"ha":1074,"x_min":86,"x_max":986,"o":"m 86 964 l 986 964 l 986 864 l 192 864 l 192 547 l 961 547 l 961 447 l 192 447 l 192 100 l 986 100 l 986 0 l 86 0 l 86 964 z "},"F":{"ha":1074,"x_min":86,"x_max":986,"o":"m 86 964 l 986 964 l 986 864 l 192 864 l 192 547 l 961 547 l 961 447 l 192 447 l 192 0 l 86 0 l 86 964 z "},"G":{"ha":1304,"x_min":69,"x_max":1256,"o":"m 69 442 l 69 529 q 169 883 69 792 q 543 974 268 974 l 888 974 q 1254 700 1254 974 l 1149 700 q 1093 828 1149 786 q 888 874 1031 874 l 528 874 q 242 810 310 874 q 175 531 175 747 l 175 442 q 235 160 175 221 q 501 99 294 99 l 888 99 q 1092 146 1043 99 q 1142 357 1142 193 l 646 357 l 646 457 l 1256 457 q 1190 90 1256 175 q 888 0 1121 0 l 514 0 q 158 86 247 0 q 69 442 69 172 z "},"H":{"ha":1271,"x_min":97,"x_max":1207,"o":"m 97 964 l 203 964 l 203 547 l 1103 547 l 1103 964 l 1207 964 l 1207 0 l 1103 0 l 1103 447 l 203 447 l 203 0 l 97 0 l 97 964 z "},"I":{"ha":397,"x_min":147,"x_max":253,"o":"m 147 0 l 147 964 l 253 964 l 253 0 l 147 0 z "},"J":{"ha":1138,"x_min":54,"x_max":1074,"o":"m 158 322 l 158 274 q 220 144 158 188 q 429 100 282 100 l 703 100 q 906 146 844 100 q 967 294 967 192 l 967 964 l 1074 964 l 1074 343 q 997 83 1074 160 q 703 0 914 0 l 429 0 q 144 65 233 0 q 54 250 54 129 l 54 322 l 158 322 z "},"K":{"ha":1224,"x_min":71,"x_max":1165,"o":"m 71 964 l 176 964 l 176 565 l 347 565 l 996 964 l 1165 964 l 449 524 l 1158 0 l 988 0 l 350 475 l 176 475 l 176 0 l 71 0 l 71 964 z "},"L":{"ha":1035,"x_min":97,"x_max":964,"o":"m 97 964 l 203 964 l 203 100 l 964 100 l 964 0 l 97 0 l 97 964 z "},"M":{"ha":1639,"x_min":83,"x_max":1557,"o":"m 83 964 l 321 964 l 819 142 l 1332 964 l 1557 964 l 1557 0 l 1453 0 l 1453 888 l 1396 888 l 851 0 l 779 0 l 244 888 l 188 888 l 188 0 l 83 0 l 83 964 z "},"N":{"ha":1275,"x_min":85,"x_max":1201,"o":"m 85 964 l 317 964 l 1097 100 l 1097 964 l 1201 964 l 1201 0 l 1050 0 l 246 888 l 189 888 l 189 0 l 85 0 l 85 964 z "},"O":{"ha":1321,"x_min":76,"x_max":1260,"o":"m 589 0 q 174 83 271 0 q 76 442 76 167 l 76 525 q 173 885 76 801 q 589 969 269 969 l 750 969 q 1163 885 1067 969 q 1260 525 1260 801 l 1260 442 q 1163 84 1260 168 q 750 0 1067 0 l 589 0 m 1156 442 l 1156 525 q 1089 813 1156 757 q 749 868 1022 868 l 589 868 q 247 813 314 868 q 181 525 181 757 l 181 442 q 247 157 181 213 q 589 101 314 101 l 749 101 q 1090 156 1024 101 q 1156 442 1156 211 z "},"P":{"ha":1183,"x_min":83,"x_max":1126,"o":"m 1126 717 l 1126 661 q 1043 477 1126 540 q 785 414 960 414 l 196 414 l 196 0 l 83 0 l 83 964 l 785 964 q 1042 900 958 964 q 1126 717 1126 836 m 196 864 l 196 514 l 779 514 q 961 551 910 514 q 1013 665 1013 588 l 1013 713 q 965 825 1013 790 q 779 864 911 864 l 196 864 z "},"Q":{"ha":1321,"x_min":76,"x_max":1307,"o":"m 750 0 l 589 0 q 174 83 271 0 q 76 442 76 167 l 76 525 q 173 885 76 801 q 589 969 269 969 l 750 969 q 1163 885 1067 969 q 1260 525 1260 801 l 1260 442 q 1249 260 1260 329 q 1210 142 1239 192 l 1307 83 l 1249 0 l 1140 67 q 992 15 1083 29 q 750 0 901 0 m 703 336 l 761 419 l 1121 197 q 1148 290 1140 233 q 1156 442 1156 346 l 1156 525 q 1089 813 1156 757 q 749 868 1022 868 l 589 868 q 247 813 314 868 q 181 525 181 757 l 181 442 q 247 157 181 213 q 589 101 314 101 l 749 101 q 883 103 854 101 q 1040 129 985 108 l 703 336 z "},"R":{"ha":1293,"x_min":92,"x_max":1226,"o":"m 1175 713 q 1147 575 1175 621 q 1079 522 1125 539 q 1176 461 1138 511 q 1226 283 1226 396 l 1226 0 l 1113 0 l 1113 282 q 1068 412 1113 376 q 894 447 1024 447 l 199 447 l 199 0 l 92 0 l 92 964 l 835 964 q 1094 903 1013 964 q 1175 713 1175 843 m 199 556 l 854 556 q 1020 593 971 556 q 1069 706 1069 631 q 1020 817 1069 776 q 863 857 971 857 l 199 857 l 199 556 z "},"S":{"ha":1333,"x_min":78,"x_max":1271,"o":"m 388 964 l 918 964 q 1263 692 1263 964 l 1157 692 q 1101 818 1157 778 q 896 864 1039 864 l 383 864 q 222 824 267 864 q 183 704 183 788 q 240 581 183 613 q 486 550 296 550 l 799 543 q 1172 483 1072 543 q 1271 272 1271 424 q 1194 61 1271 122 q 938 0 1117 0 l 417 0 q 173 68 260 0 q 86 274 86 136 l 192 274 q 246 146 192 186 q 451 100 307 100 l 932 100 q 1110 139 1056 100 q 1165 275 1165 178 q 1104 404 1165 371 q 828 443 1033 443 l 474 451 q 151 513 236 451 q 78 706 78 565 q 153 902 78 840 q 388 964 229 964 z "},"T":{"ha":1151,"x_min":31,"x_max":1125,"o":"m 1125 964 l 1125 864 l 631 864 l 631 0 l 525 0 l 525 864 l 31 864 l 31 964 l 1125 964 z "},"U":{"ha":1336,"x_min":88,"x_max":1268,"o":"m 601 101 l 757 101 q 1098 156 1032 101 q 1164 442 1164 211 l 1164 964 l 1268 964 l 1268 442 q 1172 84 1268 168 q 758 0 1075 0 l 601 0 q 185 83 282 0 q 88 442 88 167 l 88 964 l 193 964 l 193 442 q 260 157 193 213 q 601 101 326 101 z "},"V":{"ha":1200,"x_min":10,"x_max":1208,"o":"m 131 964 l 596 108 l 621 108 l 1088 964 l 1208 964 l 683 0 l 535 0 l 10 964 l 131 964 z "},"W":{"ha":1856,"x_min":6,"x_max":1842,"o":"m 583 0 l 419 0 l 6 964 l 128 964 l 488 101 l 510 101 l 863 964 l 983 964 l 1338 101 l 1361 101 l 1721 964 l 1842 964 l 1425 0 l 1268 0 l 924 853 l 583 0 z "},"X":{"ha":1235,"x_min":-10,"x_max":1242,"o":"m 186 964 l 614 556 l 1042 964 l 1181 964 l 706 510 l 1242 0 l 1103 0 l 614 463 l 136 0 l -10 0 l 522 510 l 40 964 l 186 964 z "},"Y":{"ha":1165,"x_min":1,"x_max":1168,"o":"m 149 964 l 585 547 l 1021 964 l 1168 964 l 642 461 l 642 0 l 528 0 l 528 461 l 1 964 l 149 964 z "},"Z":{"ha":1140,"x_min":69,"x_max":1078,"o":"m 1078 964 l 1078 888 l 260 100 l 1078 100 l 1078 0 l 69 0 l 69 78 l 896 864 l 69 864 l 69 964 l 1078 964 z "},"[":{"ha":369,"x_min":93,"x_max":303,"o":"m 297 1004 l 192 1004 l 192 -103 l 303 -106 l 303 -156 l 93 -154 l 93 1057 l 297 1057 l 297 1004 z "},"\\":{"ha":446,"x_min":21,"x_max":458,"o":"m 458 -124 l 346 -124 l 21 1011 l 135 1011 l 458 -124 z "},"]":{"ha":369,"x_min":72,"x_max":282,"o":"m 282 -154 l 72 -156 l 72 -106 l 185 -103 l 185 1004 l 78 1004 l 78 1057 l 282 1057 l 282 -154 z "},"^":{"ha":564,"x_min":39,"x_max":525,"o":"m 253 928 l 311 928 l 525 571 l 476 571 l 282 844 l 86 571 l 39 571 l 253 928 z "},"_":{"ha":567,"x_min":1,"x_max":567,"o":"m 567 -1 l 567 -56 l 1 -56 l 1 -1 l 567 -1 z "},"`":{"ha":396,"x_min":53,"x_max":338,"o":"m 297 788 l 53 943 l 113 1011 l 338 822 l 297 788 z "},"a":{"ha":1047,"x_min":54,"x_max":968,"o":"m 281 419 l 729 419 q 820 403 786 419 q 863 363 854 388 l 863 460 q 822 560 863 524 q 685 601 776 601 l 379 601 q 245 575 290 601 q 200 504 200 549 l 200 488 l 92 488 l 92 504 q 160 638 92 589 q 351 686 228 686 l 696 686 q 906 621 838 686 q 968 444 968 561 l 968 0 l 864 0 l 864 54 q 811 15 842 29 q 733 0 781 0 l 275 0 q 54 175 54 0 l 54 258 q 107 374 54 332 q 281 419 165 419 m 701 335 l 317 335 q 191 311 224 335 q 158 235 158 288 l 158 185 q 194 110 158 136 q 317 85 229 85 l 701 85 q 823 114 786 85 q 860 210 860 143 q 701 335 860 335 z "},"b":{"ha":1044,"x_min":75,"x_max":979,"o":"m 179 75 l 179 0 l 75 0 l 75 964 l 179 964 l 179 611 q 246 665 204 647 q 389 689 300 689 l 672 689 q 901 617 822 689 q 979 418 979 544 l 979 268 q 904 68 979 138 q 672 -1 829 -1 l 389 -1 q 254 21 304 -1 q 179 75 221 36 m 403 83 l 636 83 q 817 127 761 83 q 874 268 874 171 l 874 418 q 815 556 874 508 q 636 603 757 603 l 403 603 q 234 552 292 603 q 176 418 176 501 l 176 268 q 233 134 176 185 q 403 83 289 83 z "},"c":{"ha":1032,"x_min":61,"x_max":981,"o":"m 875 243 l 981 243 q 918 74 981 135 q 675 0 842 0 l 351 0 q 133 67 206 0 q 61 254 61 133 l 61 425 q 133 613 61 543 q 360 689 213 689 l 675 689 q 903 626 825 689 q 981 446 981 563 l 875 446 q 831 560 875 521 q 675 603 782 603 l 360 603 q 217 559 267 603 q 167 425 167 515 l 167 254 q 222 128 167 175 q 351 85 274 85 l 675 85 q 875 243 875 85 z "},"d":{"ha":1044,"x_min":68,"x_max":972,"o":"m 68 268 l 68 418 q 142 613 68 542 q 375 689 222 689 l 658 689 q 810 665 761 689 q 867 611 839 651 l 867 964 l 972 964 l 972 0 l 867 0 l 867 67 q 804 18 839 32 q 658 -1 757 -1 l 375 -1 q 68 268 68 -1 m 644 603 l 411 603 q 231 556 288 603 q 174 418 174 510 l 174 268 q 411 83 174 83 l 644 83 q 813 135 756 83 q 871 268 871 186 l 871 418 q 817 550 871 501 q 644 603 757 603 z "},"e":{"ha":1056,"x_min":72,"x_max":990,"o":"m 381 0 q 72 257 72 0 l 72 421 q 150 607 72 532 q 378 689 235 689 l 681 689 q 913 617 829 689 q 990 447 990 550 l 990 347 l 178 347 l 178 269 q 235 125 178 171 q 378 85 285 85 l 721 85 q 844 119 803 85 q 885 206 885 153 l 885 219 l 990 219 l 990 206 q 938 71 990 126 q 733 0 869 0 l 381 0 m 692 603 l 361 603 q 229 556 281 603 q 178 432 178 508 l 886 432 q 834 555 886 507 q 692 603 782 603 z "},"f":{"ha":568,"x_min":26,"x_max":529,"o":"m 529 692 l 529 592 l 221 592 l 221 0 l 115 0 l 115 592 l 26 592 l 26 692 l 115 692 l 115 708 q 182 900 115 836 q 375 964 249 964 l 528 964 l 528 864 l 375 864 q 258 829 296 864 q 221 706 221 794 l 221 692 l 529 692 z "},"g":{"ha":1063,"x_min":82,"x_max":992,"o":"m 376 686 l 679 686 q 824 663 772 686 q 886 611 853 649 l 886 686 l 992 686 l 992 -53 q 924 -231 992 -174 q 683 -293 850 -293 l 393 -293 q 192 -243 267 -293 q 117 -110 117 -193 l 231 -110 q 274 -180 231 -151 q 406 -208 318 -208 l 676 -208 q 886 -47 886 -208 l 886 81 q 833 25 871 44 q 683 0 783 0 l 388 0 q 82 256 82 0 l 82 414 q 154 617 82 547 q 376 686 226 686 m 665 603 l 425 603 q 240 557 294 603 q 186 406 186 511 l 186 268 q 425 83 186 83 l 665 83 q 831 135 774 83 q 889 268 889 186 l 889 400 q 833 549 889 494 q 665 603 776 603 z "},"h":{"ha":1053,"x_min":75,"x_max":983,"o":"m 669 686 q 913 607 832 686 q 983 417 983 538 l 983 -1 l 878 -1 l 878 417 q 821 556 878 506 q 669 606 764 606 l 392 606 q 240 556 297 606 q 183 417 183 506 l 183 -1 l 75 -1 l 75 964 l 179 964 l 179 588 q 246 656 204 632 q 392 686 300 686 l 669 686 z "},"i":{"ha":324,"x_min":113,"x_max":217,"o":"m 217 686 l 217 0 l 113 0 l 113 686 l 217 686 m 217 964 l 217 864 l 113 864 l 113 964 l 217 964 z "},"j":{"ha":404,"x_min":25,"x_max":264,"o":"m 158 686 l 264 686 l 264 -96 q 25 -294 264 -294 l 25 -194 q 127 -167 96 -194 q 158 -78 158 -140 l 158 686 m 264 964 l 264 864 l 158 864 l 158 964 l 264 964 z "},"k":{"ha":888,"x_min":83,"x_max":896,"o":"m 83 964 l 188 964 l 188 463 l 358 463 l 685 686 l 840 686 l 456 414 l 896 0 l 750 0 l 361 363 l 188 363 l 188 0 l 83 0 l 83 964 z "},"l":{"ha":342,"x_min":129,"x_max":235,"o":"m 235 964 l 235 0 l 129 0 l 129 964 l 235 964 z "},"m":{"ha":1843,"x_min":71,"x_max":1785,"o":"m 1468 686 q 1703 614 1615 686 q 1785 442 1785 546 l 1785 0 l 1681 0 l 1681 419 q 1619 556 1681 510 q 1442 601 1558 601 l 1231 601 q 1045 556 1110 601 q 981 414 981 510 l 981 0 l 875 0 l 875 417 q 811 555 875 508 q 640 601 747 601 l 422 601 q 232 542 299 601 q 176 419 176 492 l 176 0 l 71 0 l 71 686 l 176 686 l 176 581 q 249 656 200 631 q 406 686 307 686 l 653 686 q 851 644 783 686 q 931 550 901 614 q 1006 643 961 614 q 1200 686 1072 686 l 1468 686 z "},"n":{"ha":1068,"x_min":83,"x_max":992,"o":"m 676 686 q 922 600 842 686 q 992 399 992 526 l 992 0 l 886 0 l 886 414 q 828 552 886 503 q 676 601 771 601 l 400 601 q 247 550 306 601 q 188 414 188 499 l 188 0 l 83 0 l 83 686 l 188 686 l 188 575 q 265 658 214 631 q 400 686 315 686 l 676 686 z "},"o":{"ha":1039,"x_min":63,"x_max":982,"o":"m 378 689 l 668 689 q 914 607 835 689 q 982 418 982 538 l 982 268 q 913 79 982 149 q 668 -1 832 -1 l 378 -1 q 63 268 63 -1 l 63 418 q 135 613 63 543 q 378 689 214 689 m 169 268 q 388 83 169 83 l 658 83 q 817 125 763 83 q 876 268 876 171 l 876 419 q 820 556 876 508 q 658 603 764 603 l 388 603 q 223 560 276 603 q 169 418 169 517 l 169 268 z "},"p":{"ha":1042,"x_min":75,"x_max":982,"o":"m 383 689 l 668 689 q 914 607 835 689 q 982 418 982 538 l 982 268 q 913 79 982 149 q 668 -1 832 -1 l 383 -1 q 179 61 253 -1 l 179 -279 l 75 -279 l 75 686 l 179 686 l 179 622 q 265 672 214 654 q 383 689 317 689 m 175 268 q 393 83 175 83 l 658 83 q 817 125 763 83 q 876 268 876 171 l 876 419 q 820 556 876 508 q 658 603 764 603 l 393 603 q 229 560 283 603 q 175 418 175 517 l 175 268 z "},"q":{"ha":1051,"x_min":75,"x_max":982,"o":"m 876 686 l 982 686 l 982 -279 l 876 -279 l 876 61 q 790 15 840 31 q 672 -1 739 -1 l 388 -1 q 144 79 225 -1 q 75 268 75 149 l 75 418 q 142 607 75 538 q 388 689 221 689 l 672 689 q 790 673 742 689 q 876 622 839 657 l 876 686 m 663 603 l 399 603 q 179 419 179 603 l 179 268 q 237 128 179 172 q 399 83 294 83 l 663 83 q 881 268 881 83 l 881 418 q 827 559 881 515 q 663 603 774 603 z "},"r":{"ha":1042,"x_min":88,"x_max":993,"o":"m 400 689 l 679 689 q 925 607 846 689 q 993 418 993 538 l 888 418 q 832 556 888 508 q 669 603 776 603 l 410 603 q 245 560 299 603 q 192 418 192 517 l 192 0 l 88 0 l 88 686 l 192 686 l 192 599 q 265 666 215 643 q 400 689 314 689 z "},"s":{"ha":1050,"x_min":69,"x_max":983,"o":"m 69 169 l 69 218 l 175 218 l 175 182 q 207 108 175 132 q 325 83 239 83 l 718 83 q 875 178 875 83 l 875 207 q 838 278 875 251 q 738 304 801 304 l 319 313 q 138 349 196 313 q 71 482 71 390 l 71 514 q 134 641 71 593 q 322 689 197 689 l 707 689 q 931 632 861 689 q 983 518 983 589 l 983 471 l 878 471 l 878 506 q 853 572 878 551 q 722 603 817 603 l 313 603 q 175 511 175 603 l 175 482 q 210 417 175 438 q 313 397 244 397 l 732 389 q 916 344 853 389 q 979 207 979 300 l 979 168 q 915 45 979 90 q 721 0 851 0 l 311 0 q 118 51 176 0 q 69 169 69 94 z "},"t":{"ha":849,"x_min":21,"x_max":835,"o":"m 369 85 l 568 85 q 690 121 650 85 q 721 183 721 149 l 835 183 q 778 63 835 114 q 578 0 708 0 l 369 0 q 181 61 246 0 q 111 256 111 126 l 111 586 l 21 586 l 21 686 l 111 686 l 111 818 l 215 818 l 215 686 l 758 686 l 758 586 l 215 586 l 215 243 q 258 124 215 163 q 369 85 300 85 z "},"u":{"ha":1058,"x_min":78,"x_max":990,"o":"m 392 0 q 154 69 231 0 q 78 269 78 139 l 78 686 l 183 686 l 183 261 q 238 130 183 175 q 392 85 293 85 l 675 85 q 821 126 764 85 q 885 257 885 174 l 885 686 l 990 686 l 990 0 l 888 0 l 888 82 q 822 31 857 49 q 675 0 763 0 l 392 0 z "},"v":{"ha":914,"x_min":8,"x_max":914,"o":"m 125 686 l 449 108 l 472 108 l 797 686 l 914 686 l 531 0 l 393 0 l 8 686 l 125 686 z "},"w":{"ha":1708,"x_min":4,"x_max":1708,"o":"m 528 0 l 390 0 l 4 686 l 121 686 l 446 108 l 469 108 l 793 686 l 918 686 l 1243 108 l 1267 108 l 1592 686 l 1708 686 l 1325 0 l 1188 0 l 857 589 l 528 0 z "},"x":{"ha":922,"x_min":8,"x_max":914,"o":"m 193 686 l 463 432 l 728 686 l 857 686 l 525 371 l 914 0 l 783 0 l 461 308 l 135 0 l 8 0 l 396 371 l 63 686 l 193 686 z "},"y":{"ha":915,"x_min":1,"x_max":907,"o":"m 118 686 l 442 108 l 467 108 l 790 686 l 907 686 l 519 0 q 440 -121 478 -74 q 310 -239 381 -196 q 121 -293 221 -293 l 121 -192 q 269 -137 193 -192 q 388 0 344 -83 l 1 686 l 118 686 z "},"z":{"ha":908,"x_min":57,"x_max":835,"o":"m 835 686 l 835 610 l 224 85 l 835 85 l 835 0 l 57 0 l 57 78 l 669 601 l 63 601 l 63 686 l 835 686 z "},"{":{"ha":413,"x_min":46,"x_max":361,"o":"m 222 585 q 197 483 222 522 q 135 428 179 456 q 196 365 176 397 q 222 265 222 322 l 222 22 q 361 -107 222 -107 l 361 -183 q 199 -132 256 -183 q 142 22 142 -81 l 142 271 q 110 368 142 324 q 46 428 88 399 q 108 483 89 458 q 142 585 142 526 l 142 833 q 190 986 142 933 q 360 1044 244 1044 l 360 968 q 254 936 286 968 q 222 833 222 904 l 222 585 z "},"|":{"ha":243,"x_min":86,"x_max":167,"o":"m 167 -185 l 86 -185 l 86 1026 l 167 1026 l 167 -185 z "},"}":{"ha":413,"x_min":69,"x_max":386,"o":"m 71 968 l 71 1044 q 242 986 188 1044 q 290 833 290 933 l 290 585 q 324 485 290 528 q 386 428 344 457 q 324 368 347 401 q 290 271 290 322 l 290 22 q 69 -183 290 -183 l 69 -107 q 210 22 210 -107 l 210 265 q 236 364 210 321 q 297 428 258 399 q 235 483 254 454 q 210 585 210 521 l 210 833 q 178 936 210 904 q 71 968 146 968 z "},"~":{"ha":804,"x_min":119,"x_max":732,"o":"m 119 478 q 174 568 133 531 q 318 621 229 621 q 385 613 357 621 q 440 589 414 604 q 483 563 482 564 q 543 550 510 550 q 615 574 592 550 q 636 617 631 589 l 732 617 q 689 529 728 568 q 543 475 636 475 q 470 484 494 475 q 417 511 446 493 q 369 536 389 529 q 304 547 340 547 q 242 525 265 547 q 217 478 224 507 l 119 478 z "},"°":{"ha":397,"x_min":76,"x_max":346,"o":"m 172 925 l 251 925 q 322 901 299 925 q 346 843 346 878 l 346 797 q 322 740 346 763 q 251 718 299 718 l 172 718 q 100 740 124 718 q 76 797 76 763 l 76 843 q 99 902 76 879 q 172 925 121 925 m 108 797 q 172 747 108 747 l 251 747 q 313 797 313 747 l 313 843 q 297 881 313 869 q 251 893 281 893 l 172 893 q 126 881 143 893 q 108 843 108 869 l 108 797 z "},"¢":{"ha":1147,"x_min":122,"x_max":1042,"o":"m 775 196 q 899 250 853 196 q 936 353 936 294 l 1042 353 q 981 188 1042 253 q 771 111 908 111 l 629 111 l 629 33 l 525 33 l 525 111 l 381 111 q 192 178 263 111 q 122 351 122 246 l 122 550 q 197 728 122 656 q 397 800 272 800 l 525 800 l 525 889 l 629 889 l 629 800 l 754 800 q 976 726 901 800 q 1042 557 1042 661 l 936 557 q 892 667 936 621 q 761 717 843 717 l 629 717 l 629 196 l 775 196 m 421 717 q 281 668 332 717 q 229 529 229 619 l 229 364 q 278 240 229 285 q 413 196 326 196 l 525 196 l 525 717 l 421 717 z "},"•":{"ha":681,"x_min":104,"x_max":585,"o":"m 585 385 q 515 223 585 290 q 344 156 444 156 q 174 223 244 156 q 104 385 104 290 q 174 547 104 481 q 344 614 243 614 q 514 547 443 614 q 585 385 585 481 z "},"≠":{"ha":763,"x_min":21,"x_max":750,"o":"m 626 724 l 521 535 l 750 535 l 750 458 l 479 458 l 371 265 l 750 265 l 750 189 l 329 189 l 204 -35 l 136 4 l 239 189 l 21 189 l 21 265 l 282 265 l 389 458 l 21 458 l 21 535 l 432 535 l 558 763 l 626 724 z "},"∞":{"ha":990,"x_min":36,"x_max":956,"o":"m 675 543 q 712 556 690 550 q 761 561 733 561 q 897 509 838 561 q 956 383 956 457 l 956 371 q 904 238 956 296 q 768 174 849 174 l 751 174 q 583 242 663 182 q 496 321 513 307 q 408 236 451 278 q 233 174 328 174 q 222 174 225 174 q 89 235 142 174 q 36 371 36 296 l 36 388 q 99 510 43 460 q 231 561 156 561 q 317 543 275 561 q 496 413 385 513 q 572 479 546 457 q 675 543 621 519 m 285 479 q 231 489 257 489 q 140 447 174 489 q 106 360 106 404 q 144 273 106 307 q 238 239 183 239 q 267 243 251 239 q 376 296 332 258 q 450 367 379 297 q 353 443 388 419 q 285 479 319 467 m 725 243 q 756 239 740 239 q 847 273 808 239 q 886 360 886 307 q 856 443 886 406 q 761 489 818 489 q 704 478 735 489 q 636 442 674 467 q 542 367 606 421 q 614 299 600 311 q 725 243 663 257 z "},"±":{"ha":640,"x_min":53,"x_max":571,"o":"m 543 306 l 543 206 l 78 206 l 78 306 l 543 306 m 263 631 l 263 832 l 360 832 l 360 631 l 571 631 l 571 539 l 360 539 l 360 338 l 263 338 l 263 539 l 53 539 l 53 631 l 263 631 z "},"≤":{"ha":622,"x_min":78,"x_max":543,"o":"m 543 306 l 543 206 l 78 206 l 78 306 l 543 306 m 521 874 l 521 765 l 274 603 l 521 449 l 521 342 l 104 603 l 521 874 z "},"≥":{"ha":615,"x_min":78,"x_max":543,"o":"m 543 306 l 543 206 l 78 206 l 78 306 l 543 306 m 101 443 l 349 597 l 101 760 l 101 867 l 519 597 l 101 335 l 101 443 z "},"µ":{"ha":800,"x_min":44,"x_max":788,"o":"m 204 694 l 204 233 q 221 142 204 179 q 276 86 238 104 q 336 72 306 72 q 392 85 363 72 q 446 121 421 99 q 492 179 478 149 l 492 694 l 611 694 l 611 163 q 619 108 611 136 q 645 63 628 81 q 686 46 663 46 q 717 54 700 46 q 747 94 740 68 q 760 142 754 119 l 788 142 q 764 67 775 88 q 693 -3 742 24 q 619 -22 656 -22 q 578 -16 597 -22 q 550 -1 560 -10 q 505 61 514 25 q 493 114 496 97 q 453 65 472 85 q 396 18 428 40 q 337 -11 372 1 q 265 -24 301 -24 q 183 4 224 -24 q 135 44 144 38 l 135 13 q 150 -82 135 -35 q 176 -173 172 -151 q 181 -211 181 -194 q 160 -283 181 -257 q 113 -310 139 -310 q 65 -283 86 -310 q 44 -210 44 -257 q 49 -169 44 -193 q 69 -88 54 -146 q 85 13 85 -31 l 85 694 l 204 694 z "},"∂":{"ha":686,"x_min":36,"x_max":642,"o":"m 90 996 q 176 1024 125 1011 q 275 1036 226 1036 q 342 1028 308 1036 q 465 971 411 1011 q 575 842 528 925 q 623 706 604 790 q 642 546 642 621 q 626 388 642 482 q 572 186 606 260 q 513 79 538 113 q 425 4 479 33 q 362 -21 396 -12 q 297 -29 328 -29 q 154 15 218 -29 q 76 90 106 49 q 38 217 38 146 q 36 246 36 226 q 63 375 36 313 q 114 460 82 421 q 199 533 153 508 q 311 558 246 558 q 411 539 371 558 q 519 464 442 524 q 535 625 535 544 q 520 740 535 672 q 489 849 506 807 q 439 922 472 890 q 335 969 392 969 q 311 971 324 969 q 292 972 299 972 q 206 954 247 972 q 144 926 175 940 l 90 996 m 358 504 q 225 429 281 504 q 171 321 186 376 q 156 206 156 265 q 164 119 156 154 q 219 32 179 60 q 282 13 249 13 q 335 25 307 13 q 447 154 406 56 q 485 275 471 213 q 508 415 499 338 q 454 471 467 461 q 358 504 413 504 z "},"Σ":{"ha":990,"x_min":19,"x_max":965,"o":"m 865 814 l 838 814 q 788 926 810 903 q 625 972 743 972 l 260 972 l 639 475 l 231 4 l 746 4 q 860 35 824 4 q 933 161 896 67 l 965 161 q 928 -1 938 47 q 906 -150 918 -49 q 844 -139 869 -143 q 799 -135 818 -135 l 100 -135 l 19 -139 l 504 414 l 22 1044 q 113 1038 39 1044 q 167 1035 142 1035 l 857 1035 l 865 814 z "},"∏":{"ha":1143,"x_min":35,"x_max":1115,"o":"m 981 4 q 1017 -89 981 -64 q 1115 -108 1044 -108 l 1115 -140 l 690 -140 l 690 -108 q 788 -89 760 -108 q 824 4 824 -64 l 824 967 l 326 967 l 326 4 q 363 -89 326 -64 q 461 -108 390 -108 l 461 -140 l 35 -140 l 35 -108 q 133 -89 106 -108 q 169 4 169 -64 l 169 874 q 118 990 169 957 q 38 1011 86 1011 l 38 1043 l 1111 1043 l 1111 1011 q 1013 975 1044 1011 q 981 874 981 939 l 981 4 z "},"π":{"ha":763,"x_min":14,"x_max":736,"o":"m 308 556 q 276 255 292 367 q 244 68 261 143 q 219 4 236 26 q 168 -26 201 -18 q 151 -28 163 -28 q 107 -11 128 -28 q 83 24 86 6 q 79 49 79 43 q 90 89 79 71 q 114 118 107 110 q 156 171 133 142 q 183 238 179 200 l 224 556 l 158 556 q 105 542 131 556 q 67 511 79 529 l 38 468 l 14 468 q 39 539 26 503 q 75 601 53 569 q 126 651 97 633 q 207 675 163 675 l 725 675 l 725 556 l 550 556 q 538 395 542 474 q 533 229 533 317 q 568 128 533 160 q 592 112 576 119 q 624 104 607 104 q 670 122 647 104 q 700 167 693 139 q 707 208 706 199 l 736 208 q 700 63 736 125 q 636 -6 672 14 q 606 -18 624 -12 q 569 -24 589 -24 q 520 -9 540 -24 q 483 31 500 6 q 453 88 463 60 q 440 151 443 117 q 438 231 438 185 q 442 332 438 288 l 465 556 l 308 556 z "},"∫":{"ha":381,"x_min":3,"x_max":404,"o":"m 263 378 q 246 117 263 233 q 215 -29 235 40 q 195 -82 206 -62 q 175 -114 185 -101 q 134 -137 165 -126 q 86 -149 103 -149 q 51 -141 65 -149 q 25 -118 38 -133 q 8 -89 13 -103 q 3 -65 3 -75 q 40 -11 3 -31 q 64 -4 54 -4 q 99 -18 81 -4 q 119 -39 104 -22 q 139 -49 129 -49 q 166 -3 157 -49 q 175 103 175 42 q 174 224 175 178 q 167 539 167 450 l 167 739 q 174 1003 167 911 q 203 1169 181 1096 q 228 1219 210 1192 q 265 1260 246 1247 q 310 1272 283 1272 q 343 1268 329 1272 q 372 1254 357 1264 q 395 1228 386 1244 q 404 1193 404 1213 q 392 1160 404 1176 q 332 1135 369 1135 q 293 1150 308 1135 q 277 1163 286 1158 q 263 1167 268 1167 q 238 1136 238 1167 q 256 887 249 1007 q 264 678 264 767 l 263 378 z "},"Ω":{"ha":1067,"x_min":47,"x_max":1022,"o":"m 457 0 l 47 0 l 47 225 l 68 225 q 98 156 81 172 q 160 140 115 140 l 379 140 l 376 179 q 242 235 289 206 q 144 331 186 269 q 92 440 110 381 q 75 554 75 499 q 87 653 75 606 q 122 740 99 700 q 208 847 158 806 q 278 892 228 863 q 396 939 329 922 q 535 956 463 956 q 674 939 607 956 q 791 893 740 922 q 861 847 842 864 q 947 740 911 807 q 994 554 994 657 q 978 439 994 494 q 925 331 961 383 q 828 236 885 272 q 693 179 776 204 l 690 140 l 910 140 q 971 157 953 140 q 1001 225 989 174 l 1022 225 l 1022 0 l 613 0 l 635 211 q 713 250 697 239 q 799 369 764 288 q 822 453 813 403 q 832 558 832 503 q 810 715 832 642 q 736 839 788 788 q 645 894 697 878 q 535 911 593 911 q 424 896 474 911 q 333 839 375 881 q 261 714 285 790 q 238 556 238 638 q 271 369 238 446 q 335 269 299 306 q 435 211 360 243 l 457 0 z "},"√":{"ha":763,"x_min":14,"x_max":715,"o":"m 14 625 l 217 725 l 490 165 l 667 1274 l 715 1267 l 507 -53 l 169 644 l 36 579 l 14 625 z "},"≈":{"ha":763,"x_min":19,"x_max":732,"o":"m 732 514 q 648 433 701 461 q 538 404 594 404 q 513 406 522 404 q 485 411 503 407 l 276 471 q 214 481 243 481 q 107 432 151 481 q 79 397 85 403 l 19 435 q 221 544 103 544 q 290 535 257 544 l 500 476 q 535 471 522 471 q 610 489 568 471 q 649 514 628 497 q 681 547 669 531 l 732 514 m 732 304 q 648 223 701 251 q 538 194 594 194 q 513 196 522 194 q 485 201 503 197 l 276 261 q 214 271 243 271 q 107 222 151 271 q 79 188 85 193 l 19 225 q 221 335 103 335 q 290 325 257 335 l 500 267 q 535 261 522 261 q 610 279 568 261 q 649 304 628 288 q 681 338 669 321 l 732 304 z "},"∆":{"ha":850,"x_min":8,"x_max":844,"o":"m 844 0 l 8 0 l 453 956 l 844 0 m 100 68 l 672 68 l 403 718 l 100 68 z "},"«":{"ha":793,"x_min":75,"x_max":685,"o":"m 369 106 l 75 386 l 375 671 l 422 625 l 172 386 l 418 151 l 369 106 m 632 106 l 338 386 l 638 671 l 685 625 l 435 386 l 681 151 l 632 106 z "},"»":{"ha":793,"x_min":115,"x_max":733,"o":"m 115 626 l 164 671 l 464 386 l 171 108 l 121 153 l 367 386 l 115 626 m 385 626 l 435 671 l 733 386 l 440 108 l 392 153 l 638 386 l 385 626 z "}," ":{"ha":694,"x_min":0,"x_max":0,"o":""},"“":{"ha":501,"x_min":85,"x_max":433,"o":"m 433 758 l 319 758 l 319 936 q 330 980 319 960 q 360 1013 340 1000 l 414 1013 q 385 980 397 1000 q 374 936 374 960 l 374 865 l 433 865 l 433 758 m 199 758 l 85 758 l 85 936 q 125 1013 85 986 l 179 1013 q 149 979 161 999 q 138 936 138 960 l 138 865 l 199 865 l 199 758 z "},"”":{"ha":510,"x_min":86,"x_max":435,"o":"m 86 963 l 200 963 l 200 785 q 189 740 200 760 q 158 708 178 721 l 106 708 q 134 742 122 722 q 146 785 146 761 l 146 856 l 86 856 l 86 963 m 321 963 l 435 963 l 435 785 q 424 740 435 760 q 393 708 413 721 l 340 708 q 370 742 358 724 q 382 785 382 761 l 382 856 l 321 856 l 321 963 z "},"‘":{"ha":267,"x_min":85,"x_max":199,"o":"m 199 758 l 85 758 l 85 936 q 125 1013 85 986 l 179 1013 q 149 979 161 999 q 138 936 138 960 l 138 865 l 199 865 l 199 758 z "},"’":{"ha":267,"x_min":86,"x_max":200,"o":"m 86 963 l 200 963 l 200 785 q 189 740 200 760 q 158 708 178 721 l 106 708 q 134 742 122 722 q 146 785 146 761 l 146 856 l 86 856 l 86 963 z "},"÷":{"ha":763,"x_min":14,"x_max":744,"o":"m 14 404 l 744 404 l 744 328 l 14 328 l 14 404 m 372 633 q 428 611 406 633 q 450 556 450 589 q 428 500 450 522 q 372 478 406 478 q 317 500 339 478 q 294 556 294 522 q 317 611 294 589 q 372 633 339 633 m 372 254 q 428 232 406 254 q 450 176 450 210 q 428 121 450 143 q 372 99 406 99 q 317 121 339 99 q 294 176 294 143 q 317 232 294 210 q 372 254 339 254 z "},"◊":{"ha":686,"x_min":25,"x_max":647,"o":"m 294 0 l 25 524 l 294 1035 l 378 1035 l 647 524 l 378 0 l 294 0 m 336 960 l 108 524 l 336 75 l 564 524 l 336 960 z "},"‹":{"ha":486,"x_min":49,"x_max":397,"o":"m 344 106 l 49 386 l 349 671 l 397 625 l 146 386 l 392 151 l 344 106 z "},"›":{"ha":499,"x_min":115,"x_max":464,"o":"m 115 626 l 164 671 l 464 386 l 171 108 l 121 153 l 367 386 l 115 626 z "},"‚":{"ha":267,"x_min":81,"x_max":194,"o":"m 81 218 l 194 218 l 194 40 q 183 -4 194 15 q 153 -36 172 -24 l 99 -36 q 128 -3 117 -22 q 140 40 140 17 l 140 111 l 81 111 l 81 218 z "},"„":{"ha":510,"x_min":81,"x_max":429,"o":"m 81 218 l 194 218 l 194 40 q 183 -4 194 15 q 153 -36 172 -24 l 99 -36 q 128 -3 117 -22 q 140 40 140 17 l 140 111 l 81 111 l 81 218 m 315 218 l 429 218 l 429 40 q 418 -4 429 15 q 388 -36 407 -24 l 333 -36 q 363 -3 350 -24 q 376 40 376 18 l 376 111 l 315 111 l 315 218 z "},"‰":{"ha":2392,"x_min":69,"x_max":2354,"o":"m 751 640 q 689 425 751 481 q 436 369 626 369 l 385 369 q 132 424 194 369 q 69 636 69 478 l 69 692 q 132 907 69 851 q 385 963 194 963 l 438 963 q 690 908 628 963 q 751 692 751 853 l 751 640 m 738 -46 l 651 -46 l 951 1011 l 1038 1011 l 738 -46 m 1618 271 q 1556 56 1618 111 q 1304 0 1493 0 l 1253 0 q 1000 54 1063 0 q 938 267 938 108 l 938 322 q 1000 538 938 482 q 1253 593 1063 593 l 1306 593 q 1556 538 1494 593 q 1618 322 1618 483 l 1618 271 m 2354 271 q 2292 56 2354 111 q 2039 0 2229 0 l 1988 0 q 1735 54 1797 0 q 1672 267 1672 108 l 1672 322 q 1735 538 1672 482 q 1988 593 1797 593 l 2040 593 q 2292 538 2231 593 q 2354 322 2354 483 l 2354 271 m 438 879 l 385 879 q 197 848 233 879 q 160 692 160 817 l 160 636 q 197 484 160 515 q 385 453 235 453 l 436 453 q 624 484 588 453 q 661 640 661 515 l 661 692 q 624 848 661 817 q 438 879 588 879 m 2040 510 l 1988 510 q 1799 478 1836 510 q 1763 322 1763 447 l 1763 267 q 1800 115 1763 146 q 1988 83 1838 83 l 2039 83 q 2227 115 2190 83 q 2264 271 2264 146 l 2264 322 q 2227 478 2264 447 q 2040 510 2190 510 m 1306 510 l 1253 510 q 1065 478 1101 510 q 1028 322 1028 447 l 1028 267 q 1065 115 1028 146 q 1253 83 1103 83 l 1304 83 q 1492 114 1456 83 q 1528 271 1528 144 l 1528 322 q 1491 478 1528 447 q 1306 510 1454 510 z "},"":{"ha":1097,"x_min":78,"x_max":1018,"o":"m 472 14 q 435 0 453 4 q 399 -4 417 -4 q 366 0 390 -4 q 322 15 342 4 q 286 40 303 25 q 201 138 236 86 q 135 263 172 181 q 95 386 113 310 q 78 529 78 463 q 82 583 78 558 q 132 725 97 667 q 199 804 161 775 q 286 847 236 833 q 383 861 336 861 q 417 860 406 861 q 442 855 428 858 q 503 832 456 851 q 568 817 540 817 q 633 831 600 817 q 692 854 690 854 q 754 861 719 861 q 852 849 806 861 q 936 806 899 836 q 967 778 950 794 q 989 753 978 765 q 932 706 953 726 q 897 660 911 685 q 871 597 882 636 q 860 519 860 558 q 873 446 860 483 q 906 383 886 408 q 965 322 939 339 q 1018 296 999 306 q 939 142 971 193 q 867 54 907 90 q 829 21 847 38 q 775 0 806 4 q 738 -4 744 -4 q 699 1 717 -4 q 664 14 681 7 q 568 42 604 42 q 528 36 547 42 q 472 14 510 31 m 783 1036 q 767 985 779 1010 q 735 940 756 961 q 689 900 714 919 q 642 868 671 886 q 606 860 633 863 q 564 856 578 857 q 563 882 563 865 q 571 926 563 903 q 590 974 586 965 q 621 1024 604 1003 q 659 1064 638 1046 q 697 1090 681 1082 q 740 1108 713 1097 q 786 1122 767 1119 l 786 1078 l 786 1061 q 783 1036 786 1053 z "},"¸":{"ha":304,"x_min":64,"x_max":253,"o":"m 253 0 l 253 -74 q 213 -174 253 -143 q 64 -206 172 -206 l 64 -117 q 139 -105 118 -117 q 160 -67 160 -93 l 160 0 l 253 0 z "},"ʺ":{"ha":601,"x_min":99,"x_max":486,"o":"m 304 1033 l 149 793 l 99 810 l 218 1071 l 304 1033 m 486 1033 l 331 793 l 281 810 l 400 1071 l 486 1033 z "},"˛":{"ha":324,"x_min":69,"x_max":258,"o":"m 163 -67 q 183 -105 163 -93 q 258 -117 204 -117 l 258 -206 q 110 -174 150 -206 q 69 -74 69 -143 l 69 0 l 163 0 l 163 -67 z "},"Ł":{"ha":922,"x_min":40,"x_max":872,"o":"m 40 310 l 40 371 q 109 619 40 556 q 371 682 178 682 l 614 682 q 871 490 871 682 l 797 490 q 756 581 797 550 q 614 611 715 611 l 361 611 q 162 567 208 611 q 115 371 115 524 l 115 310 q 156 112 115 154 q 343 69 197 69 l 614 69 q 757 97 715 69 q 799 190 799 125 l 872 190 q 814 47 872 93 q 617 0 756 0 l 351 0 q 104 58 164 0 q 40 310 40 121 z "},"ł":{"ha":913,"x_min":69,"x_max":872,"o":"m 69 0 l 69 675 l 540 675 q 803 611 733 675 q 872 364 872 547 l 872 310 q 812 59 872 118 q 561 0 751 0 l 69 0 m 799 310 l 799 364 q 751 560 799 515 q 551 604 704 604 l 143 604 l 143 69 l 569 69 q 760 110 721 69 q 799 310 799 150 z "},"Š":{"ha":751,"x_min":60,"x_max":690,"o":"m 60 675 l 690 675 l 690 604 l 135 604 l 135 383 l 672 383 l 672 313 l 135 313 l 135 69 l 690 69 l 690 0 l 60 0 l 60 675 z "},"š":{"ha":751,"x_min":60,"x_max":690,"o":"m 60 675 l 690 675 l 690 604 l 135 604 l 135 383 l 672 383 l 672 313 l 135 313 l 135 0 l 60 0 l 60 675 z "},"Ž":{"ha":893,"x_min":60,"x_max":840,"o":"m 60 675 l 222 675 l 768 69 l 768 675 l 840 675 l 840 0 l 735 0 l 172 621 l 132 621 l 132 0 l 60 0 l 60 675 z "},"ž":{"ha":925,"x_min":53,"x_max":882,"o":"m 413 0 q 121 58 189 0 q 53 310 53 117 l 53 368 q 122 620 53 561 q 413 679 190 679 l 525 679 q 815 620 747 679 q 882 368 882 561 l 882 310 q 815 58 882 117 q 525 0 749 0 l 413 0 m 808 310 l 808 368 q 762 568 808 529 q 524 607 715 607 l 413 607 q 173 569 219 607 q 126 368 126 531 l 126 310 q 174 110 126 149 q 413 71 221 71 l 524 71 q 762 109 715 71 q 808 310 808 147 z "},"Ð":{"ha":860,"x_min":7,"x_max":856,"o":"m 374 675 l 488 675 l 856 0 l 769 0 l 682 163 l 178 163 l 89 0 l 7 0 l 374 675 m 431 625 l 218 232 l 644 232 l 431 625 z "},"ð":{"ha":897,"x_min":63,"x_max":857,"o":"m 574 675 q 821 507 821 675 q 806 407 821 438 q 757 358 790 376 q 822 317 800 343 q 857 199 857 275 q 797 45 857 90 q 608 0 736 0 l 63 0 l 63 675 l 574 675 m 138 389 l 604 389 q 711 408 681 389 q 747 494 747 432 q 714 578 747 551 q 601 604 681 604 l 138 604 l 138 389 m 138 69 l 636 69 q 783 197 783 69 q 747 292 783 264 q 631 319 711 319 l 138 319 l 138 69 z "},"Ý":{"ha":913,"x_min":49,"x_max":879,"o":"m 49 310 l 49 371 q 117 619 49 556 q 381 682 186 682 l 621 682 q 878 490 878 682 l 804 490 q 763 581 804 550 q 621 611 722 611 l 369 611 q 169 567 217 611 q 122 371 122 522 l 122 310 q 164 111 122 153 q 351 69 206 69 l 621 69 q 764 103 729 69 q 799 250 799 136 l 451 250 l 451 319 l 879 319 q 832 61 879 122 q 621 0 785 0 l 360 0 q 113 58 172 0 q 49 310 49 121 z "},"ý":{"ha":889,"x_min":68,"x_max":844,"o":"m 68 675 l 142 675 l 142 383 l 772 383 l 772 675 l 844 675 l 844 0 l 772 0 l 772 313 l 142 313 l 142 0 l 68 0 l 68 675 z "},"Þ":{"ha":857,"x_min":50,"x_max":815,"o":"m 50 675 l 124 675 l 124 396 l 243 396 l 697 675 l 815 675 l 314 367 l 811 0 l 692 0 l 244 332 l 124 332 l 124 0 l 50 0 l 50 675 z "},"þ":{"ha":724,"x_min":68,"x_max":675,"o":"m 68 675 l 142 675 l 142 69 l 675 69 l 675 0 l 68 0 l 68 675 z "},"¹":{"ha":1299,"x_min":4,"x_max":1289,"o":"m 408 0 l 293 0 l 4 675 l 89 675 l 342 71 l 357 71 l 604 675 l 689 675 l 936 71 l 953 71 l 1204 675 l 1289 675 l 997 0 l 888 0 l 646 597 l 408 0 z "},"²":{"ha":799,"x_min":49,"x_max":754,"o":"m 754 675 l 754 621 l 182 69 l 754 69 l 754 0 l 49 0 l 49 54 l 626 604 l 49 604 l 49 675 l 754 675 z "},"³":{"ha":815,"x_min":1,"x_max":818,"o":"m 104 675 l 410 383 l 714 675 l 818 675 l 449 322 l 449 0 l 369 0 l 369 322 l 1 675 l 104 675 z "},"½":{"ha":935,"x_min":61,"x_max":888,"o":"m 421 71 l 529 71 q 769 109 722 71 q 815 310 815 147 l 815 675 l 888 675 l 888 310 q 821 58 888 117 q 531 0 754 0 l 421 0 q 129 58 197 0 q 61 310 61 117 l 61 675 l 135 675 l 135 310 q 181 110 135 149 q 421 71 228 71 z "},"¼":{"ha":840,"x_min":7,"x_max":846,"o":"m 92 675 l 417 76 l 435 76 l 761 675 l 846 675 l 478 0 l 374 0 l 7 675 l 92 675 z "},"¾":{"ha":864,"x_min":-7,"x_max":869,"o":"m 131 675 l 429 389 l 729 675 l 826 675 l 494 357 l 869 0 l 772 0 l 429 324 l 96 0 l -7 0 l 365 357 l 28 675 l 131 675 z "}}}
